<svg data-name="Livello 1" id="Livello_1" viewBox="0 0 595.28 841.89" xmlns="http://www.w3.org/2000/svg" xmlns:xlink="http://www.w3.org/1999/xlink"> <defs>
<style type="text/css">.cls-1, .cls-2, .cls-7, .cls-8 {
        fill: #00a8af;
      }

      .cls-2, .cls-36, .cls-38, .cls-4, .cls-40, .cls-54, .cls-6, .cls-60 {
        font-size: 30px;
      }

      .cls-2, .cls-20, .cls-25, .cls-31, .cls-36, .cls-38, .cls-4, .cls-40, .cls-42, .cls-45, .cls-46, .cls-50, .cls-54, .cls-56, .cls-6, .cls-60, .cls-62, .cls-8 {
        font-family: Montserrat-SemiBold, Montserrat;
        font-weight: 600;
      }

      .cls-19, .cls-20, .cls-3, .cls-4 {
        fill: #0064b0;
      }

      .cls-24, .cls-25, .cls-5, .cls-6 {
        fill: #851f82;
      }

      .cls-19, .cls-24, .cls-41, .cls-44, .cls-49, .cls-55, .cls-61, .cls-7 {
        stroke: #fff;
        stroke-miterlimit: 10;
        stroke-width: 2px;
      }

      .cls-20, .cls-25, .cls-42, .cls-45, .cls-46, .cls-50, .cls-56, .cls-62, .cls-8 {
        font-size: 10px;
      }

      .cls-9 {
        letter-spacing: 0em;
      }

      .cls-10 {
        letter-spacing: -0.01em;
      }

      .cls-11 {
        letter-spacing: 0em;
      }

      .cls-12 {
        letter-spacing: -0.04em;
      }

      .cls-13 {
        letter-spacing: 0em;
      }

      .cls-14 {
        letter-spacing: -0.02em;
      }

      .cls-15 {
        letter-spacing: -0.02em;
      }

      .cls-16 {
        letter-spacing: 0em;
      }

      .cls-17, .cls-46 {
        letter-spacing: -0.01em;
      }

      .cls-18 {
        letter-spacing: 0em;
      }

      .cls-21 {
        letter-spacing: -0.02em;
      }

      .cls-22 {
        letter-spacing: -0.04em;
      }

      .cls-23 {
        letter-spacing: -0.01em;
      }

      .cls-26 {
        letter-spacing: -0.01em;
      }

      .cls-27 {
        letter-spacing: 0em;
      }

      .cls-28 {
        letter-spacing: 0em;
      }

      .cls-29 {
        letter-spacing: 0.01em;
      }

      .cls-30 {
        letter-spacing: -0.06em;
      }

      .cls-31 {
        font-size: 15px;
        fill: #fff;
      }

      .cls-32 {
        letter-spacing: 0em;
      }

      .cls-33 {
        letter-spacing: -0.03em;
      }

      .cls-34 {
        letter-spacing: -0.01em;
      }

      .cls-35, .cls-36, .cls-41, .cls-42 {
        fill: #ffcb00;
      }

      .cls-37, .cls-38, .cls-44, .cls-45, .cls-46 {
        fill: #f3911a;
      }

      .cls-39, .cls-40, .cls-49, .cls-50 {
        fill: #e9511e;
      }

      .cls-43 {
        letter-spacing: -0.01em;
      }

      .cls-47 {
        letter-spacing: -0.01em;
      }

      .cls-48 {
        letter-spacing: -0.03em;
      }

      .cls-51 {
        letter-spacing: -0.01em;
      }

      .cls-52 {
        letter-spacing: 0em;
      }

      .cls-53, .cls-54, .cls-55, .cls-56 {
        fill: #e71883;
      }

      .cls-57 {
        letter-spacing: -0.01em;
      }

      .cls-58 {
        letter-spacing: 0.01em;
      }

      .cls-59, .cls-60, .cls-61, .cls-62 {
        fill: #542583;
      }

      .cls-63 {
        letter-spacing: 0em;
      }

      .cls-64, .cls-66, .cls-70, .cls-71 {
        font-size: 35.15px;
        font-family: GothamNarrow-Black, Gotham Narrow;
        font-weight: 800;
      }

      .cls-64 {
        fill: #f39200;
      }

      .cls-65, .cls-70 {
        fill: #706f6f;
      }

      .cls-66 {
        fill: #009fe3;
      }

      .cls-67 {
        letter-spacing: 0em;
      }

      .cls-68 {
        letter-spacing: -0.04em;
      }

      .cls-69 {
        letter-spacing: 0em;
      }

      .cls-71 {
        fill: #e6007e;
      }
</style>
</defs> <rect class="cls-1" height="24.44" width="264.74" x="30.34" y="53.91"></rect> <rect class="cls-1" height="186.21" width="9.69" x="51.33" y="84.67"></rect> <text class="cls-2" transform="translate(34.3 106.72)">1</text> <rect class="cls-3" height="187.1" width="9.69" x="51.33" y="275.33"></rect> <text class="cls-4" transform="translate(30.34 298.28)">2</text> <rect class="cls-5" height="190.67" width="9.69" x="51.33" y="466"></rect> <text class="cls-6" transform="translate(30.34 489.87)">3</text> <g> <circle class="cls-7" cx="56.18" cy="117.95" r="7.49"></circle> <text class="cls-8" transform="translate(66.83 121.47)">ASSEMB<tspan class="cls-9" x="43.93" y="0">L</tspan><tspan class="cls-10" x="49.93" y="0">A</tspan><tspan class="cls-11" x="57.32" y="0">GGIO PC</tspan></text> </g> <g> <circle class="cls-7" cx="56.18" cy="157.54" r="7.49"></circle> <text class="cls-8" transform="translate(66.83 161.06)">IN<tspan class="cls-10" x="11.29" y="0">S</tspan><tspan class="cls-12" x="17.48" y="0">T</tspan><tspan x="23.15" y="0">AL</tspan><tspan class="cls-13" x="36.63" y="0">L</tspan><tspan x="42.63" y="0">AZIONE </tspan><tspan class="cls-14" x="85.92" y="0">W</tspan><tspan x="97.21" y="0">IND</tspan><tspan class="cls-15" x="116.76" y="0">O</tspan><tspan class="cls-14" x="124.96" y="0">W</tspan><tspan x="136.25" y="0">S</tspan></text> </g> <g> <circle class="cls-7" cx="56.18" cy="197.13" r="7.49"></circle> <text class="cls-8" transform="translate(66.83 200.65)">IN<tspan class="cls-10" x="11.29" y="0">S</tspan><tspan class="cls-12" x="17.48" y="0">T</tspan><tspan x="23.15" y="0">AL</tspan><tspan class="cls-13" x="36.63" y="0">L</tspan><tspan x="42.63" y="0">AZIONE DR</tspan><tspan class="cls-16" x="101.49" y="0">I</tspan><tspan class="cls-17" x="104.63" y="0">V</tspan><tspan class="cls-18" x="111.77" y="0">ER</tspan></text> </g> <g> <circle class="cls-7" cx="56.18" cy="236.71" r="7.49"></circle> <text class="cls-8" transform="translate(66.83 240.24)">IN<tspan class="cls-10" x="11.29" y="0">S</tspan><tspan class="cls-12" x="17.48" y="0">T</tspan><tspan x="23.15" y="0">AL</tspan><tspan class="cls-13" x="36.63" y="0">L</tspan><tspan x="42.63" y="0">AZIONE LIN</tspan><tspan class="cls-10" x="103.2" y="0">U</tspan><tspan class="cls-11" x="110.99" y="0">X</tspan></text> </g> <g> <circle class="cls-19" cx="56.59" cy="356.72" r="7.49"></circle> <text class="cls-20" transform="translate(67.25 360.24)"><tspan class="cls-17">C</tspan><tspan x="7.12" y="0">AB</tspan><tspan class="cls-13" x="22.22" y="0">L</tspan><tspan class="cls-10" x="28.22" y="0">A</tspan><tspan class="cls-11" x="35.61" y="0">GGIO RETE</tspan></text> </g> <g> <circle class="cls-19" cx="56.01" cy="316.17" r="7.49"></circle> <text class="cls-20" transform="translate(66.66 319.69)">HAR<tspan class="cls-21" x="22.9" y="0">D</tspan><tspan class="cls-22" x="30.94" y="0">W</tspan><tspan class="cls-11" x="42.01" y="0">ARE PC</tspan></text> </g> <g> <circle class="cls-19" cx="57.01" cy="435.22" r="7.49"></circle> <text class="cls-20" transform="translate(67.66 438.74)">RAS<tspan class="cls-23" x="21.09" y="0">P</tspan><tspan x="28.25" y="0">BER</tspan><tspan class="cls-10" x="49.87" y="0">R</tspan><tspan x="57.08" y="0">Y</tspan></text> </g> <g> <circle class="cls-19" cx="56.59" cy="393.15" r="7.49"></circle> <text class="cls-20" transform="translate(67.25 396.67)">ASSI<tspan class="cls-10" x="23.26" y="0">S</tspan><tspan x="29.45" y="0">TENZA AL CLIENTE</tspan></text> </g> <g> <circle class="cls-24" cx="56.59" cy="598.99" r="7.49"></circle> <text class="cls-25" transform="translate(67.25 602.51)">RO<tspan class="cls-26" x="15.73" y="0">U</tspan><tspan x="23.49" y="0">TE</tspan><tspan class="cls-27" x="36.21" y="0">R</tspan><tspan class="cls-28" x="43.51" y="0">-</tspan><tspan x="47.41" y="0">OS e SI</tspan><tspan class="cls-27" x="83.34" y="0">C</tspan><tspan x="90.6" y="0">UREZZA</tspan></text> </g> <g> <circle class="cls-24" cx="56.18" cy="562.7" r="7.49"></circle> <text class="cls-25" transform="translate(66.83 566.22)">SER<tspan class="cls-17" x="20.3" y="0">V</tspan><tspan class="cls-18" x="27.44" y="0">ER LIN</tspan><tspan class="cls-23" x="61.49" y="0">U</tspan><tspan x="69.28" y="0">X</tspan></text> </g> <g> <circle class="cls-24" cx="56.59" cy="533.08" r="7.49"></circle> <text class="cls-25" transform="translate(67.25 536.6)">SER<tspan class="cls-17" x="20.3" y="0">V</tspan><tspan class="cls-18" x="27.44" y="0">ER </tspan><tspan class="cls-17" x="44.21" y="0">W</tspan><tspan x="55.5" y="0">IND</tspan><tspan class="cls-15" x="75.05" y="0">O</tspan><tspan class="cls-17" x="83.25" y="0">W</tspan><tspan x="94.54" y="0">S</tspan></text> </g> <g> <circle class="cls-24" cx="56.59" cy="502.74" r="7.49"></circle> <text class="cls-25" transform="translate(67.25 506.26)"><tspan class="cls-23">P</tspan><tspan class="cls-18" x="7.16" y="0">ROGE</tspan><tspan class="cls-29" x="37.31" y="0">T</tspan><tspan class="cls-12" x="43.43" y="0">T</tspan><tspan x="49.1" y="0">AZIONE RETI</tspan></text> </g> <g> <circle class="cls-24" cx="56.43" cy="632.83" r="7.49"></circle> <text class="cls-25" transform="translate(67.08 636.35)">MU<tspan class="cls-30" x="17.44" y="0">L</tspan><tspan x="22.78" y="0">TIMEDIA</tspan></text> </g> <text class="cls-31" transform="translate(34.3 72.03)"><tspan class="cls-32">L</tspan><tspan x="9" y="0">ABOR</tspan><tspan class="cls-33" x="55.24" y="0">A</tspan><tspan class="cls-34" x="65.95" y="0">T</tspan><tspan x="74.83" y="0">ORIO</tspan></text> <rect class="cls-35" height="24.44" width="264.74" x="302.67" y="54.31"></rect> <rect class="cls-35" height="186.21" width="9.69" x="323.67" y="85.06"></rect> <text class="cls-36" transform="translate(306.64 107.12)">1</text> <rect class="cls-37" height="187.1" width="9.69" x="323.67" y="275.73"></rect> <text class="cls-38" transform="translate(302.67 298.68)">2</text> <rect class="cls-39" height="187.8" width="9.59" x="323.67" y="466.4"></rect> <text class="cls-40" transform="translate(302.67 490.27)">3</text> <g> <circle class="cls-41" cx="328.51" cy="128.35" r="7.49"></circle> <text class="cls-42" transform="translate(339.17 131.87)">LEGO MIND<tspan class="cls-10" x="60.69" y="0">ST</tspan><tspan x="72.8" y="0">ORMS</tspan></text> </g> <g> <circle class="cls-41" cx="328.51" cy="177.74" r="7.49"></circle> <text class="cls-42" transform="translate(339.17 181.26)">C <tspan class="cls-43" x="10.03" y="0">c</tspan><tspan x="15.76" y="0">on ARDUINO</tspan></text> </g> <g> <circle class="cls-44" cx="328.95" cy="338.85" r="7.49"></circle> <text class="cls-45" transform="translate(339.61 342.37)">HTML &amp; <tspan class="cls-27" x="42.24" y="0">C</tspan><tspan x="49.5" y="0">SS</tspan></text> </g> <g> <circle class="cls-44" cx="328.95" cy="312.55" r="7.49"></circle> <text class="cls-46" transform="translate(339.61 316.07)">V<tspan class="cls-18" x="7.14" y="0">ERSIONING</tspan></text> </g> <g> <circle class="cls-44" cx="328.37" cy="364.21" r="7.49"></circle> <text class="cls-45" transform="translate(339.02 367.73)">BO<tspan class="cls-10" x="16.03" y="0">O</tspan><tspan class="cls-47" x="24.35" y="0">T</tspan><tspan class="cls-10" x="30.3" y="0">S</tspan><tspan x="36.49" y="0">TRAP</tspan></text> </g> <g> <circle class="cls-44" cx="328.95" cy="416.03" r="7.49"></circle> <text class="cls-45" transform="translate(339.61 419.55)">RE<tspan class="cls-23" x="14.01" y="0">A</tspan><tspan class="cls-43" x="21.4" y="0">C</tspan><tspan x="28.59" y="0">T e N</tspan><tspan class="cls-43" x="54.45" y="0">E</tspan><tspan class="cls-48" x="61.07" y="0">X</tspan><tspan class="cls-10" x="67.7" y="0">T</tspan><tspan x="73.62" y="0">JS</tspan></text> </g> <g> <circle class="cls-44" cx="328.37" cy="441.11" r="7.49"></circle> <text class="cls-45" transform="translate(339.02 444.63)">C#: A<tspan class="cls-23" x="27.07" y="0">P</tspan><tspan class="cls-11" x="34.23" y="0">P </tspan><tspan class="cls-17" x="44.25" y="0">W</tspan><tspan class="cls-18" x="55.54" y="0">IND</tspan><tspan class="cls-15" x="75.09" y="0">O</tspan><tspan class="cls-17" x="83.29" y="0">W</tspan><tspan x="94.58" y="0">S</tspan></text> </g> <g> <circle class="cls-49" cx="328.37" cy="509.55" r="7.49"></circle> <text class="cls-50" transform="translate(339.02 513.08)">SQL</text> </g> <g> <circle class="cls-49" cx="328.37" cy="548.17" r="7.49"></circle> <text class="cls-50" transform="translate(339.02 551.7)">RU<tspan class="cls-17" x="15.2" y="0">B</tspan><tspan x="22.66" y="0">Y ON RAI</tspan><tspan class="cls-51" x="69.3" y="0">L</tspan><tspan x="75.24" y="0">S</tspan></text> </g> <g> <circle class="cls-49" cx="328.95" cy="580.67" r="7.49"></circle> <text class="cls-50" transform="translate(339.61 584.19)">A<tspan class="cls-23" x="7.49" y="0">P</tspan><tspan x="14.65" y="0">I</tspan></text> </g> <g> <circle class="cls-49" cx="328.37" cy="615.28" r="7.49"></circle> <text class="cls-50" transform="translate(339.02 618.8)"><tspan class="cls-52">C</tspan><tspan class="cls-9" x="7.26" y="0">+</tspan><tspan x="13.17" y="0">+ </tspan><tspan class="cls-43" x="21.83" y="0">c</tspan><tspan class="cls-11" x="27.56" y="0">on UNREAL e </tspan><tspan class="cls-14" x="98.84" y="0">V</tspan><tspan x="105.98" y="0">R</tspan></text> </g> <rect class="cls-53" height="131.71" width="9.69" x="323.57" y="657.77"></rect> <text class="cls-54" transform="translate(299.57 680.94)">4</text> <g> <circle class="cls-55" cx="328.51" cy="725.16" r="7.49"></circle> <text class="cls-56" transform="translate(339.16 728.68)">DO<tspan class="cls-27" x="16.68" y="0">C</tspan><tspan x="23.94" y="0">UMEN</tspan><tspan class="cls-12" x="56.18" y="0">T</tspan><tspan x="61.85" y="0">AZIONE</tspan></text> </g> <g> <circle class="cls-55" cx="328.09" cy="691.46" r="7.49"></circle> <text class="cls-56" transform="translate(338.75 694.99)">F<tspan class="cls-10" x="6.37" y="0">L</tspan><tspan class="cls-57" x="12.26" y="0">U</tspan><tspan class="cls-58" x="20.02" y="0">T</tspan><tspan x="26.14" y="0">TER</tspan></text> </g> <g> <circle class="cls-55" cx="328.68" cy="755.28" r="7.49"></circle> <text class="cls-56" transform="translate(339.33 758.8)">TE<tspan class="cls-10" x="12.72" y="0">S</tspan><tspan x="18.91" y="0">T SI</tspan><tspan class="cls-10" x="37.17" y="0">S</tspan><tspan x="43.36" y="0">TEM</tspan><tspan class="cls-33" x="65.63" y="0">A</tspan><tspan class="cls-18" x="72.77" y="0">TICI</tspan></text> </g> <rect class="cls-59" height="131.71" width="9.69" x="51.25" y="659.3"></rect> <text class="cls-60" transform="translate(27.26 682.47)">4</text> <g> <circle class="cls-61" cx="56.1" cy="698.95" r="7.49"></circle> <text class="cls-62" transform="translate(66.75 702.47)">ES<tspan class="cls-23" x="12.99" y="0">P</tspan><tspan x="20.15" y="0">ERIENZA IN AZIEN</tspan><tspan class="cls-23" x="115.19" y="0">D</tspan><tspan class="cls-63" x="123.35" y="0">A</tspan></text> </g> <text class="cls-31" transform="translate(306.64 72.43)"><tspan class="cls-34">P</tspan><tspan x="10.74" y="0">ROGRAMMAZIONE</tspan></text> <g> <circle class="cls-44" cx="328.95" cy="389.63" r="7.49"></circle> <text class="cls-45" transform="translate(339.61 393.15)"><tspan class="cls-17">J</tspan><tspan class="cls-22" x="5.12" y="0">AV</tspan><tspan x="19.16" y="0">ASCRI</tspan><tspan class="cls-48" x="50.71" y="0">P</tspan><tspan x="57.67" y="0">T</tspan></text> </g> <text class="cls-64" transform="translate(567.41 459.73) rotate(-90)">FRONT<tspan class="cls-65" x="110.33" y="0">END</tspan></text> <text class="cls-66" transform="translate(567.41 640.31) rotate(-90)"><tspan class="cls-67">B</tspan><tspan class="cls-68" x="21.9" y="0">A</tspan><tspan class="cls-69" x="44.6" y="0">CK</tspan><tspan class="cls-65" x="88.64" y="0">END</tspan></text> <text class="cls-70" transform="translate(567.41 189.64) rotate(-90)">INTRO</text> <text class="cls-71" transform="translate(567.41 789.48) rotate(-90)">MOBILE</text> </svg>